{"title":"London Has Fallen 2016 BRRip x264 AAC-SSN","uid":14753751,"size":1193610263,"categoryP":"video","categoryS":"movies","magnet":"?xt=urn:btih:e22f662b32c607b1995d82587c2c3a07fab7e62d&amp;dn=London+Has+Fallen+2016+BRRip+x264+AAC-SSN&amp;tr=udp%3A%2F%2Ftracker.leechers-paradise.org%3A6969&amp;tr=udp%3A%2F%2Fzer0day.ch%3A1337&amp;tr=udp%3A%2F%2Fopen.demonii.com%3A1337&amp;tr=udp%3A%2F%2Ftracker.coppersurfer.tk%3A6969&amp;tr=udp%3A%2F%2Fexodus.desync.com%3A6969","seeders":1,"leechers":0,"uploader":"somespirit","files":2,"time":1464778442,"description":"\nIMDB:  http://www.imdb.com/title/tt3300542/\r\n\r\n Source: London.Has.Fallen.2016.720p.BluRay.DTS.x264-EPiC\r\n\r\n\r\n\r\n General\r\n Complete name                            : London Has Fallen 2016 BRRip x264 AAC-SSN.mkv\r\n Format                                   : Matroska\r\n Format version                           : Version 4 / Version 2\r\n File size                                : 1.11 GiB\r\n Duration                                 : 1h 38mn\r\n Overall bit rate                         : 1 612 Kbps\r\n Encoded date                             : UTC 2016-06-01 09:21:12\r\n Writing application                      : mkvmerge v8.6.1 ('Flying') 64bit\r\n Writing library                          : libebml v1.3.3 + libmatroska v1.4.4\r\n\r\n Video\r\n ID                                       : 1\r\n Format                                   : AVC\r\n Format/Info                              : Advanced Video Codec\r\n Format profile                           :   \r\n Format settings, CABAC                   : Yes\r\n Format settings, ReFrames                : 5 frames\r\n Codec ID                                 : V_MPEG4/ISO/AVC\r\n Duration                                 : 1h 38mn\r\n Bit rate                                 : 1 282 Kbps\r\n Width                                    : 900 pixels\r\n Height                                   : 376 pixels\r\n Display aspect ratio                     : 2.40:1\r\n Frame rate mode                          : Constant\r\n Frame rate                               : 23.976 (24000/1001) fps\r\n Color space                              : YUV\r\n Chroma subsampling                       : 4:2:0\r\n Bit depth                                : 8 bits\r\n Scan type                                : Progressive\r\n Bits/(Pixel*Frame)                       : 0.190\r\n Stream size                              : 904 MiB (79%)\r\n Writing library                          : x264 core 148 r2692 64f4e24\r\n Language                                 : English\r\n Default                                  : Yes\r\n Forced                     \r\n\r\n\r\n\r\n Audio\r\n ID                                       : 2\r\n Format                                   : AAC\r\n Format/Info                              : Advanced Audio Codec\r\n Format profile                           : LC\r\n Codec ID                                 : A_AAC\r\n Duration                                 : 1h 38mn\r\n Bit rate                                 : 330 Kbps\r\n Channel(s)                               : 6 channels\r\n Channel positions                        : Front: L C R, Side: L R, LFE\r\n Sampling rate                            : 32.0 KHz\r\n Frame rate                               : 31.250 fps (1024 spf)\r\n Compression mode                         : Lossy\r\n Stream size                              : 233 MiB (20%)\r\n Language                                 : English\r\n Default                                  : Yes\r\n Forced                                   : No\r\n \nhttp://lookpic.com/O/i2/178/PPpPN2Id.png\r\n \nhttp://lookpic.com/O/i2/821/C6VC1EuW.png\r\n \nhttp://lookpic.com/O/i2/1284/ntroWEkk.png","torrent":{"xt":"urn:btih:e22f662b32c607b1995d82587c2c3a07fab7e62d","amp;dn":"London+Has+Fallen+2016+BRRip+x264+AAC-SSN","amp;tr":["udp%3A%2F%2Ftracker.leechers-paradise.org%3A6969","udp%3A%2F%2Fzer0day.ch%3A1337","udp%3A%2F%2Fopen.demonii.com%3A1337","udp%3A%2F%2Ftracker.coppersurfer.tk%3A6969","udp%3A%2F%2Fexodus.desync.com%3A6969"],"infoHash":"e22f662b32c607b1995d82587c2c3a07fab7e62d","infoHashBuffer":{"type":"Buffer","data":[226,47,102,43,50,198,7,177,153,93,130,88,124,44,58,7,250,183,230,45]},"announce":[],"urlList":[]}}